{"title":"Prosecuting Casey Anthony 2013 Repack WebRip XViD MP3 KingStoner","uid":8740473,"size":591599409,"categoryP":"video","categoryS":"movies","magnet":"?xt=urn:btih:1d3f600f6b8c21a3498174baafcbc2bb76275d06&amp;dn=Prosecuting+Casey+Anthony+2013+Repack+WebRip+XViD+MP3+KingStoner&amp;tr=udp%3A%2F%2Ftracker.openbittorrent.com%3A80&amp;tr=udp%3A%2F%2Fopen.demonii.com%3A1337&amp;tr=udp%3A%2F%2Ftracker.coppersurfer.tk%3A6969&amp;tr=udp%3A%2F%2Fexodus.desync.com%3A6969","seeders":2,"leechers":1,"uploader":"ValidusVyto","files":-1,"time":1374771279,"description":"_______ Visit us at our Semi Public Bittorrent Community ________\n     &lt;a href=&quot;\nhttp://p2pdl.com&quot; rel=&quot;nofollow&quot; target=&quot;_NEW&quot;&gt;\nhttp://p2pdl.com&lt;/a&gt;  _____________________________ &lt;a href=&quot; http://p2pdl.com&quot; rel=&quot;nofollow&quot; target=&quot;_NEW&quot;&gt; http://p2pdl.com&lt;/a&gt;\n\nProsecuting Casey Anthony 2013 Repack WebRip XViD MP3 KingStoner\n &lt;a href=&quot;\nhttp://www.imdb.com/title/tt2216088/&quot; rel=&quot;nofollow&quot; target=&quot;_NEW&quot;&gt;\nhttp://www.imdb.com/title/tt2216088/&lt;/a&gt;\n\nGeneral\nFormat                                   : AVI\nFormat/Info                              : Audio Video Interleave\nFile size                                : 564 MiB\nDuration                                 : 1h 30mn\nOverall bit rate                         : 872 Kbps\nWriting application                      : MEncoder SVN-r33883(20110719-gcc4.5.2)\nWriting library                          : MPlayer\n\nVideo\nCodec ID/Hint                            : XviD\nDuration                                 : 1h 30mn\nBit rate                                 : 732 Kbps\nWidth                                    : 640 pixels\nHeight                                   : 336 pixels\nDisplay aspect ratio                     : 16:9\nOriginal display aspect ratio            : 1.85:1\nFrame rate                               : 23.976 fps\nColor space                              : YUV\nChroma subsampling                       : 4:2:0\nBit depth                                : 8 bits\nScan type                                : Progressive\nBits/(Pixel*Frame)                       : 0.142\nStream size                              : 473 MiB (84%)\nWriting library                          : XviD 1.2.1 (UTC 2008-12-04)\n\nAudio\nCodec ID/Hint                            : MP3\nDuration                                 : 1h 30mn\nBit rate mode                            : Constant\nBit rate                                 : 128 Kbps\nChannel(s)                               : 2 channels\nSampling rate                            : 48.0 KHz\nCompression mode                         : Lossy\nDelay relative to video                  : 42ms\nStream size                              : 82.7 MiB (15%)\n &lt;a href=&quot;\nhttp://ultraimg.com/images/VxiEG.png&quot; rel=&quot;nofollow&quot; target=&quot;_NEW&quot;&gt;\nhttp://ultraimg.com/images/VxiEG.png&lt;/a&gt; &lt;a href=&quot;\nhttp://ultraimg.com/images/LbWx2.png&quot; rel=&quot;nofollow&quot; target=&quot;_NEW&quot;&gt;\nhttp://ultraimg.com/images/LbWx2.png&lt;/a&gt; &lt;a href=&quot;\nhttp://ultraimg.com/images/YVI6S.png&quot; rel=&quot;nofollow&quot; target=&quot;_NEW&quot;&gt;\nhttp://ultraimg.com/images/YVI6S.png&lt;/a&gt; &lt;a href=&quot;\nhttp://ultraimg.com/images/LGKk.png&quot; rel=&quot;nofollow&quot; target=&quot;_NEW&quot;&gt;\nhttp://ultraimg.com/images/LGKk.png&lt;/a&gt;","torrent":{"xt":"urn:btih:1d3f600f6b8c21a3498174baafcbc2bb76275d06","amp;dn":"Prosecuting+Casey+Anthony+2013+Repack+WebRip+XViD+MP3+KingStoner","amp;tr":["udp%3A%2F%2Ftracker.openbittorrent.com%3A80","udp%3A%2F%2Fopen.demonii.com%3A1337","udp%3A%2F%2Ftracker.coppersurfer.tk%3A6969","udp%3A%2F%2Fexodus.desync.com%3A6969"],"infoHash":"1d3f600f6b8c21a3498174baafcbc2bb76275d06","infoHashBuffer":{"type":"Buffer","data":[29,63,96,15,107,140,33,163,73,129,116,186,175,203,194,187,118,39,93,6]},"announce":[],"urlList":[]}}